REM MD5 cff12790cb870c7816f482efd7e6138f
FILE "Psygnosis '98 Interactive Demos (USA) (Demo).bin" BINARY
  TRACK 01 MODE2/2352
    INDEX 01 00:00:00
  TRACK 02 AUDIO
    INDEX 00 34:07:53
    INDEX 01 34:09:53
  TRACK 03 AUDIO
    INDEX 00 35:49:12
    INDEX 01 35:51:12
  TRACK 04 AUDIO
    INDEX 00 41:14:00
    INDEX 01 41:16:00
  TRACK 05 AUDIO
    INDEX 00 42:55:34
    INDEX 01 42:57:34
REM LEADOUT 44:36:68
